<svg xmlns="http://www.w3.org/2000/svg" viewBox="0 0 64 64" role="img" aria-label="Xmarket">
  <rect width="64" height="64" rx="14" fill="#0a0a0a"/>
  <rect x="4" y="4" width="56" height="56" rx="11" fill="#111111" stroke="#ff3347" stroke-width="2"/>
  <path d="M18 16h9l7 9 7-9h9L38.5 31.2 51 48h-9.2L34 37.5 26.2 48H17l12.5-16.8L18 16z" fill="#f5fffd"/>
  <path d="M24.8 21.5 34 33.8l9.2-12.3h-3.9L34 28.6l-5.3-7.1h-3.9zm9.2 18.1 3.9 5.2h4.2L36.1 37 34 39.6zm-4.2-5.8-8.2 11h4.2l6.1-8.2-2.1-2.8z" fill="#ff3347"/>
</svg>
